<?xml version="1.0" standalone="no"?>
<!DOCTYPE svg PUBLIC "-//W3C//DTD SVG 20010904//EN"
 "http://www.w3.org/TR/2001/REC-SVG-20010904/DTD/svg10.dtd">
<svg version="1.0" xmlns="http://www.w3.org/2000/svg"
 width="1000.000000pt" height="1000.000000pt" viewBox="0 0 1000.000000 1000.000000"
 preserveAspectRatio="xMidYMid meet">

<g transform="translate(0.000000,1000.000000) scale(0.100000,-0.100000)"
fill="#ed4245" stroke="none">
<path d="M4760 8803 c-19 -1 -87 -8 -150 -13 -335 -31 -685 -109 -1005 -225
-1273 -461 -2241 -1532 -2569 -2844 -84 -337 -115 -572 -121 -941 l-4 -265 14
235 c30 509 109 884 276 1301 150 379 412 806 674 1099 115 129 615 629 715
715 446 384 994 663 1590 809 456 111 967 141 1415 82 61 -8 130 -17 155 -20
43 -5 43 -5 9 4 -65 17 -320 49 -471 60 -135 9 -445 11 -528 3z"/>
<path d="M5808 8723 c6 -2 18 -2 25 0 6 3 1 5 -13 5 -14 0 -19 -2 -12 -5z"/>
<path d="M5858 8713 c7 -3 16 -2 19 1 4 3 -2 6 -13 5 -11 0 -14 -3 -6 -6z"/>
<path d="M5948 8693 c7 -3 16 -2 19 1 4 3 -2 6 -13 5 -11 0 -14 -3 -6 -6z"/>
<path d="M4910 8624 c-453 -38 -830 -126 -1203 -280 -148 -61 -189 -87 -77
-49 187 64 496 128 755 157 181 20 625 17 805 -5 312 -39 572 -96 815 -178
364 -124 708 -297 1002 -506 250 -177 579 -485 755 -706 480 -604 765 -1273
855 -2007 22 -180 24 -646 5 -820 -153 -1329 -900 -2429 -2067 -3040 -420
-221 -896 -362 -1397 -416 -212 -23 -586 -23 -783 0 -484 56 -919 186 -1345
401 -80 41 -154 81 -165 89 -11 9 50 -20 135 -63 431 -220 838 -341 1355 -403
166 -20 654 -17 825 5 469 60 849 176 1254 381 280 142 534 312 736 492 14 13
57 49 95 82 199 168 476 495 641 757 321 508 505 1044 569 1657 20 192 20 563
0 756 -130 1249 -846 2324 -1950 2925 -659 358 -1455 514 -2195 431 -587 -66
-1157 -267 -1637 -578 -130 -84 -377 -343 -565 -593 -405 -539 -648 -1164
-730 -1878 -19 -166 -16 -598 6 -775 90 -743 361 -1400 809 -1958 540 -673
1329 -1156 2167 -1326 303 -61 392 -70 735 -70 205 -1 358 4 425 12 542 67
1021 221 1468 472 39 22 72 39 72 36 0 -7 -145 -88 -255 -143 -347 -174 -719
-296 -1092 -358 -249 -41 -344 -49 -638 -49 -302 -1 -446 12 -705 60 -1170
218 -2209 994 -2734 2042 -559 1115 -560 2393 -4 3485 35 70 63 127 62 127 -9
0 -154 -214 -220 -325 -267 -448 -440 -966 -506 -1520 -17 -146 -17 -674 0
-815 58 -471 175 -863 378 -1270 174 -347 395 -657 668 -937 71 -73 125 -133
121 -133 -5 0 4 -13 20 -30 15 -16 31 -27 36 -25 4 3 27 -14 51 -38 27 -25 30
-30 9 -12 -36 30 -36 30 4 -13 37 -40 65 -57 49 -29 -4 6 2 3 14 -7 26 -23 29
-34 5 -15 -10 7 -5 -1 11 -19 33 -36 60 -44 30 -9 l-19 22 22 -19 c12 -10 21
-23 20 -29 -5 -23 322 -256 533 -380 325 -190 706 -345 1065 -433 600 -147
1217 -162 1799 -43 534 109 984 293 1435 586 1450 943 2146 2717 1730 4405
-195 791 -618 1500 -1223 2046 -184 166 -467 383 -556 426 -17 8 -10 3 145
-107 233 -167 486 -396 669 -607 512 -588 824 -1302 922 -2110 22 -179 26
-638 6 -805 -70 -604 -243 -1121 -537 -1610 -135 -224 -381 -542 -526 -680
-42 -40 -33 -28 27 36 255 271 510 652 669 999 167 364 263 696 322 1110 22
160 25 695 5 865 -67 544 -241 1064 -509 1518 -463 784 -1195 1372 -2063 1655
-272 89 -429 123 -765 168 -113 15 -540 27 -645 18z m844 -1019 c135 -36 227
-109 266 -212 26 -69 25 -108 -2 -163 -48 -94 -149 -138 -417 -184 -253 -44
-241 -50 104 -56 l300 -5 3 -102 3 -103 -491 0 -492 0 4 139 c3 138 3 139 34
178 57 71 168 117 368 153 139 25 210 45 226 65 11 13 9 20 -10 40 -50 54
-161 59 -224 12 -33 -26 -40 -27 -163 -27 -70 0 -151 3 -179 6 l-52 7 15 43
c30 89 131 173 243 204 117 33 351 35 464 5z m-1081 -19 c181 -43 267 -130
267 -271 0 -77 -21 -127 -76 -182 -29 -29 -61 -53 -71 -53 -13 0 -10 -5 12
-19 17 -10 43 -33 58 -50 26 -32 33 -51 60 -168 l15 -63 -168 0 -168 0 -10 28
c-6 15 -18 50 -27 79 -18 57 -65 107 -113 120 -15 4 -88 7 -162 8 l-135 0 -3
-117 -3 -118 -174 0 -175 0 0 416 0 416 403 -5 c324 -4 415 -8 470 -21z m3038
-1610 c84 -18 134 -44 181 -93 31 -31 68 -96 68 -118 0 -3 -65 -5 -145 -5
-136 0 -148 2 -176 23 -40 29 -127 31 -158 3 -39 -35 -32 -38 158 -57 254 -24
348 -92 311 -224 -30 -105 -124 -174 -270 -196 -93 -14 -237 -7 -321 17 -53
15 -73 27 -119 73 -33 34 -60 71 -67 94 l-11 37 145 0 c129 0 148 -2 170 -20
34 -26 84 -34 127 -20 38 12 64 44 46 55 -5 3 -63 10 -127 16 -65 5 -142 14
-172 19 -183 33 -240 152 -141 288 34 47 130 99 206 111 79 14 224 12 295 -3z
m-5110 -19 c121 -30 164 -75 164 -174 0 -62 -2 -66 -37 -99 -41 -37 -45 -44
-24 -44 7 0 34 -18 60 -41 43 -38 46 -44 46 -90 0 -88 -37 -131 -140 -165 -48
-15 -103 -18 -427 -22 l-373 -4 0 333 0 332 338 -6 c241 -4 353 -10 393 -20z
m899 13 c110 -11 183 -31 231 -63 116 -78 117 -255 2 -333 l-32 -21 27 -20
c34 -25 57 -71 75 -151 l14 -63 -136 3 -136 3 -21 65 c-31 98 -54 110 -205
110 l-119 0 0 -90 0 -90 -140 0 -140 0 0 330 0 330 243 0 c133 0 285 -5 337
-10z m1052 -22 c32 -43 398 -615 398 -622 0 -3 -62 -6 -138 -6 l-139 0 -32 50
-32 50 -205 0 -205 0 -17 -31 c-40 -72 -33 -70 -185 -67 l-138 3 167 260 c91
143 186 290 210 328 l44 67 124 0 124 0 24 -32z m874 -51 c39 -45 123 -143
185 -217 l114 -135 3 218 2 217 134 0 134 0 6 -31 c3 -17 6 -166 6 -330 l0
-299 -168 0 -167 0 -135 162 c-74 90 -156 187 -182 216 l-48 52 0 -215 0 -215
-140 0 -140 0 0 330 0 330 163 0 162 0 71 -83z m1396 59 c134 -30 212 -81 249
-161 22 -47 26 -213 8 -280 -15 -55 -91 -127 -162 -154 -93 -34 -169 -41 -474
-41 l-293 0 0 331 0 331 303 -5 c219 -4 321 -9 369 -21z m-1569 -1267 c151
-20 249 -69 335 -167 72 -83 92 -120 92 -170 0 -98 -66 -173 -224 -254 l-109
-56 79 -46 c43 -25 82 -46 87 -46 4 0 22 23 39 50 17 28 38 50 47 49 9 0 93
-12 186 -27 154 -25 170 -30 169 -47 -1 -11 -4 -27 -8 -36 -6 -13 2 -17 43
-23 l51 -7 -26 -52 c-15 -29 -39 -71 -55 -93 l-28 -42 84 -38 c80 -36 84 -39
68 -56 -20 -22 -20 -22 40 -45 l48 -19 -112 -89 c-62 -50 -121 -96 -131 -103
-16 -11 -37 -5 -161 48 l-143 60 -65 -26 c-173 -71 -386 -100 -664 -91 -323
11 -432 50 -607 220 -66 64 -79 83 -94 132 -47 165 72 306 339 400 l78 28 -60
61 c-71 72 -101 131 -101 201 0 126 104 223 289 270 118 31 340 37 514 14z
m-1896 -1694 c165 -80 203 -102 208 -122 3 -13 16 -28 28 -32 18 -7 32 -39 75
-170 29 -88 57 -161 62 -161 4 0 88 29 187 64 l178 64 140 -71 c77 -38 174
-86 215 -105 48 -22 69 -37 58 -39 -25 -6 -22 -18 7 -31 22 -10 31 -8 63 13
129 85 423 132 657 106 221 -25 324 -72 449 -201 128 -133 166 -223 166 -396
0 -72 -6 -120 -19 -163 -80 -258 -357 -388 -786 -368 -245 12 -379 63 -521
199 -135 130 -182 248 -171 433 6 106 32 186 82 256 19 27 31 49 26 49 -21 0
-607 -194 -617 -204 -5 -6 -55 -104 -110 -218 -54 -114 -103 -208 -109 -208
-24 0 -375 180 -375 193 0 7 -16 21 -35 30 -19 9 -35 20 -35 24 0 5 47 104
105 222 l105 213 -130 355 c-71 196 -130 360 -130 365 0 13 -11 18 227 -97z
m3498 55 c11 -24 24 -39 31 -36 12 5 258 -467 289 -555 41 -114 37 -248 -10
-345 -82 -170 -388 -369 -658 -429 -108 -24 -223 -18 -297 16 -71 33 -200 146
-254 223 -24 34 -101 173 -171 310 -122 238 -127 250 -109 263 24 19 351 183
363 183 5 0 14 -14 21 -31 7 -17 22 -34 32 -38 12 -4 66 -98 147 -256 146
-284 150 -289 251 -283 104 7 208 80 228 161 18 71 -1 125 -139 400 -72 144
-128 263 -123 264 5 2 90 46 189 98 99 52 183 94 186 95 3 0 14 -18 24 -40z
m-4665 -1285 c13 -14 21 -25 18 -25 -2 0 -15 11 -28 25 -13 14 -21 25 -18 25
2 0 15 -11 28 -25z"/>
<path d="M4150 7316 l0 -83 38 -5 c76 -10 325 7 358 25 68 35 47 112 -37 134
-24 6 -115 12 -201 12 l-158 1 0 -84z"/>
<path d="M2150 5762 l0 -51 47 -7 c47 -7 220 2 248 12 29 12 36 40 16 66 -18
22 -26 23 -165 26 l-146 4 0 -50z"/>
<path d="M2150 5542 c0 -51 0 -51 36 -58 42 -8 262 0 286 11 28 12 33 45 9 68
-19 19 -35 21 -176 25 l-155 4 0 -50z"/>
<path d="M3200 5747 l0 -66 36 -7 c20 -4 84 -4 142 -1 82 4 110 9 131 25 34
25 34 59 -2 86 -24 18 -45 21 -167 24 l-140 4 0 -65z"/>
<path d="M4354 5692 c-27 -47 -50 -90 -52 -94 -2 -4 44 -8 102 -8 58 0 106 3
106 6 0 8 -57 109 -86 151 l-21 32 -49 -87z"/>
<path d="M6430 5650 l0 -159 36 -7 c44 -8 185 1 236 16 84 24 126 114 96 205
-24 74 -105 105 -273 105 l-95 0 0 -160z"/>
<path d="M5030 4429 c-81 -33 -98 -103 -35 -145 22 -15 28 -14 88 15 69 33
127 89 127 121 0 18 -7 20 -77 19 -43 0 -89 -5 -103 -10z"/>
<path d="M4860 3864 c-80 -45 -131 -111 -117 -148 17 -43 158 -71 272 -55 68
9 163 35 177 48 6 6 -263 181 -279 181 -4 0 -28 -12 -53 -26z"/>
<path d="M5037 2166 c-117 -33 -191 -131 -190 -250 0 -40 8 -79 21 -108 17
-39 27 -48 68 -64 70 -27 213 -26 274 2 97 45 144 122 144 234 0 96 -27 154
-82 177 -51 21 -176 26 -235 9z"/>
<path d="M6920 8326 c0 -2 7 -7 16 -10 8 -3 12 -2 9 4 -6 10 -25 14 -25 6z"/>
<path d="M7130 8206 c0 -3 9 -10 20 -16 11 -6 20 -8 20 -6 0 3 -9 10 -20 16
-11 6 -20 8 -20 6z"/>
<path d="M923 4425 c0 -33 2 -45 4 -27 2 18 2 45 0 60 -2 15 -4 0 -4 -33z"/>
</g>
</svg>
